<?xml version="1.0" encoding="UTF-8"?>
<!-- Generator: Adobe Illustrator 26.4.1, SVG Export Plug-In . SVG Version: 6.00 Build 0)  -->
<svg xmlns="http://www.w3.org/2000/svg" xmlns:xlink="http://www.w3.org/1999/xlink" version="1.1" id="ARTWORK" x="0px" y="0px" viewBox="0 0 103.51 25" style="enable-background:new 0 0 103.51 25;" xml:space="preserve">
<style type="text/css">
	.st0{fill:#6E6E6E;}
	.st1{fill:#F26A23;}
</style>
<g>
	<g>
		<g>
			<path class="st0" d="M28.45,24.59c-0.55-0.26-0.98-0.63-1.28-1.11c-0.3-0.48-0.45-1.05-0.45-1.7c0-0.65,0.15-1.22,0.45-1.7     c0.3-0.48,0.73-0.85,1.28-1.11c0.56-0.26,1.21-0.39,1.97-0.39c0.59,0,1.12,0.09,1.57,0.26c0.46,0.17,0.82,0.42,1.1,0.73     c0.28,0.32,0.45,0.69,0.51,1.13h-1.18c-0.1-0.51-0.32-0.9-0.66-1.17c-0.34-0.27-0.78-0.4-1.31-0.4c-0.69,0-1.23,0.23-1.62,0.69     c-0.39,0.46-0.58,1.11-0.58,1.95c0,0.83,0.19,1.48,0.57,1.95c0.38,0.47,0.91,0.7,1.59,0.7c0.3,0,0.56-0.03,0.8-0.09     c0.24-0.06,0.49-0.17,0.76-0.32v-1.9h-2.13v-0.52h3.64v2.43c-0.31,0.3-0.75,0.53-1.3,0.7c-0.55,0.17-1.14,0.26-1.77,0.26     C29.65,24.98,29,24.85,28.45,24.59z"></path>
			<path class="st0" d="M40.32,24.44c0.11,0.22,0.21,0.33,0.31,0.32v0.12h-1.48c-0.11-0.12-0.21-0.27-0.31-0.45     c-0.09-0.18-0.19-0.41-0.29-0.69c-0.15-0.39-0.29-0.7-0.42-0.92c-0.13-0.22-0.3-0.37-0.51-0.45h-0.13h-1.32v2.52h-1.5v-6.22h2.82     c0.93,0,1.65,0.14,2.16,0.42c0.51,0.28,0.76,0.75,0.76,1.42c0,0.91-0.49,1.48-1.47,1.72c0.2,0.12,0.38,0.29,0.53,0.49     c0.15,0.2,0.29,0.47,0.43,0.8C40.07,23.91,40.21,24.23,40.32,24.44z M36.18,21.82h1.32c0.45,0,0.8-0.09,1.04-0.28     c0.25-0.18,0.37-0.53,0.37-1.04c0-0.5-0.12-0.84-0.37-1.02c-0.25-0.18-0.59-0.27-1.04-0.27h-1.32V21.82z"></path>
			<path class="st0" d="M42.88,24.62c-0.54-0.25-0.95-0.62-1.24-1.11c-0.29-0.48-0.43-1.06-0.43-1.74c0-0.66,0.14-1.23,0.43-1.71     c0.29-0.47,0.7-0.84,1.24-1.09c0.54-0.25,1.18-0.38,1.92-0.38c0.73,0,1.37,0.13,1.91,0.38c0.54,0.25,0.95,0.61,1.24,1.09     c0.29,0.47,0.43,1.04,0.43,1.71c0,0.68-0.14,1.25-0.43,1.74c-0.29,0.48-0.7,0.85-1.24,1.11C46.17,24.87,45.54,25,44.8,25     C44.05,25,43.41,24.87,42.88,24.62z M46.32,23.76c0.35-0.46,0.52-1.12,0.52-1.99c0-0.85-0.18-1.5-0.52-1.95     c-0.35-0.45-0.86-0.67-1.53-0.67c-0.67,0-1.18,0.22-1.53,0.67s-0.53,1.1-0.53,1.95c0,0.87,0.17,1.53,0.52,1.99     c0.35,0.46,0.86,0.68,1.54,0.68C45.46,24.45,45.97,24.22,46.32,23.76z"></path>
			<path class="st0" d="M50,24.24c-0.46-0.49-0.69-1.14-0.69-1.95v-3.63h1.51v3.83c0,0.59,0.12,1.05,0.35,1.4     c0.23,0.35,0.67,0.52,1.31,0.52c0.62,0,1.04-0.17,1.28-0.51c0.24-0.34,0.36-0.81,0.36-1.42v-3.83h1.51v3.63     c0,0.81-0.23,1.46-0.68,1.95c-0.46,0.49-1.28,0.73-2.47,0.73C51.28,24.98,50.46,24.73,50,24.24z"></path>
			<path class="st0" d="M56.77,18.67h2.61c0.94,0,1.66,0.15,2.16,0.44c0.51,0.29,0.76,0.79,0.76,1.49c0,0.69-0.25,1.18-0.75,1.48     c-0.5,0.3-1.23,0.45-2.17,0.45h-1.1v2.36h-1.51V18.67z M59.39,21.96c0.47,0,0.83-0.1,1.06-0.29c0.23-0.2,0.35-0.55,0.35-1.08     c0-0.52-0.12-0.87-0.35-1.08c-0.23-0.2-0.59-0.3-1.07-0.3h-1.11v2.75H59.39z"></path>
		</g>
		<g>
			<g>
				<path class="st0" d="M31.95,8.74l4-3.98h-2.1l-4.43,4.41l4.1,5.66h2.89L31.95,8.74z M26.72,14.82h2.45V4.76h-2.45V14.82z"></path>
				<path class="st0" d="M37.54,4.76h2.45v10.07h-2.45V4.76z"></path>
				<path class="st0" d="M54.24,4.76v10.07h-2.46V7.73l-3.04,7.09h-1.51l-3.8-7.32v7.32h-1.35V4.76h2.49l3.9,7.57l3.27-7.57H54.24z"></path>
				<path class="st0" d="M60.69,14.35c-0.87-0.41-1.54-1.01-2.01-1.79c-0.47-0.78-0.7-1.72-0.7-2.81c0-1.07,0.23-1.99,0.7-2.76      c0.47-0.77,1.13-1.35,2.01-1.76c0.87-0.41,1.91-0.61,3.11-0.61c1.19,0,2.22,0.2,3.09,0.61c0.87,0.41,1.54,0.99,2.01,1.76      c0.46,0.77,0.7,1.69,0.7,2.76c0,1.09-0.23,2.03-0.7,2.81c-0.47,0.78-1.13,1.38-2,1.79c-0.87,0.41-1.9,0.62-3.1,0.62      C62.6,14.97,61.56,14.76,60.69,14.35z M66.27,12.97c0.57-0.74,0.85-1.81,0.85-3.22c0-1.38-0.28-2.43-0.85-3.16      C65.71,5.87,64.88,5.5,63.8,5.5c-1.08,0-1.91,0.36-2.48,1.09c-0.57,0.72-0.86,1.78-0.86,3.16c0,1.41,0.28,2.48,0.85,3.22      c0.57,0.74,1.4,1.11,2.49,1.11C64.88,14.08,65.71,13.71,66.27,12.97z"></path>
				<path class="st0" d="M77.02,12.31h-5.05l-1.22,2.51h-1.67l5.16-10.07h1.55l4.86,10.07H78.2L77.02,12.31z M76.61,11.44L74.54,7      l-2.14,4.44H76.61z"></path>
				<path class="st0" d="M81.35,4.76h2.4l5.15,6.8v-6.8h2.3v10.07h-1.64l-5.91-7.91v7.91h-2.3V4.76z"></path>
				<path class="st0" d="M93.29,4.76h2.45v4.23h5.34V4.76h2.45v10.07h-2.45V9.88h-5.34v4.95h-2.45V4.76z"></path>
			</g>
		</g>
	</g>
	<g>
		<g>
			<g>
				<path class="st1" d="M8.66,18.11l5.51,6.78h8.7L12.52,12.15c-0.45-0.56-1.3-0.57-1.76-0.02L0,24.89h2.14l5.71-6.79      C8.06,17.85,8.46,17.85,8.66,18.11z"></path>
			</g>
			<path class="st1" d="M18.97,0L2.02,20.13C1.33,20.95,0,20.46,0,19.39V0h6.72v10.56c0,0.49,0.62,0.72,0.93,0.34L16.83,0H18.97z"></path>
		</g>
	</g>
</g>
</svg>
